<?xml version="1.0" encoding="UTF-8"?>
<svg version="1.1" xmlns="http://www.w3.org/2000/svg" width="640" height="640">
<path d="M0 0 C211.2 0 422.4 0 640 0 C640 211.2 640 422.4 640 640 C428.8 640 217.6 640 0 640 C0 428.8 0 217.6 0 0 Z " fill="#1D1F24" transform="translate(0,0)"/>
<path d="M0 0 C23.1 0 46.2 0 70 0 C70 120.78 70 241.56 70 366 C55.48 366 40.96 366 26 366 C24.68 364.35 23.36 362.7 22 361 C21.00385352 359.99616127 20.00430991 358.99567143 19 358 C18.07627597 356.84622398 17.17481846 355.6743699 16.29296875 354.48828125 C15.78830078 353.81216797 15.28363281 353.13605469 14.76367188 352.43945312 C14.24353516 351.73755859 13.72339844 351.03566406 13.1875 350.3125 C12.67896484 349.62994141 12.17042969 348.94738281 11.64648438 348.24414062 C9.54698069 345.4261756 7.44847439 342.6075889 5.36157227 339.78027344 C4.83490967 339.07032227 4.30824707 338.36037109 3.765625 337.62890625 C3.29286133 336.98896729 2.82009766 336.34902832 2.33300781 335.68969727 C0.90560244 333.80501065 0.90560244 333.80501065 -1.4375 331.625 C-4.53491512 328.45203817 -6.88379735 324.97841933 -9.3515625 321.3046875 C-10.85658973 319.05920783 -10.85658973 319.05920783 -12.42944336 317.60009766 C-14.12184059 315.87586768 -15.41743939 314.08957403 -16.77734375 312.09375 C-17.29103516 311.34996094 -17.80472656 310.60617187 -18.33398438 309.83984375 C-19.40174804 308.28176717 -20.46686153 306.72187102 -21.52929688 305.16015625 C-22.30176758 304.04447266 -22.30176758 304.04447266 -23.08984375 302.90625 C-23.55253662 302.22884766 -24.01522949 301.55144531 -24.49194336 300.85351562 C-26.13104935 298.83893045 -27.90992318 297.52498795 -30 296 C-31.35213074 293.84466323 -32.433959 291.6321807 -33.55859375 289.3515625 C-35.3381091 286.44839654 -37.57356461 284.38265009 -40 282 C-41.41014333 280.21470533 -42.78416241 278.40041616 -44.125 276.5625 C-47.49365461 272.00392262 -50.92279592 267.50931101 -54.4375 263.0625 C-58.40638465 258.03621178 -62.33336684 252.98093704 -66.22802734 247.89697266 C-69.76096943 243.29285034 -73.35163043 238.73562572 -76.94946289 234.18212891 C-80.74119777 229.36733466 -84.40474221 224.46642652 -88.02734375 219.5234375 C-89.9139047 217.00390364 -89.9139047 217.00390364 -92.01171875 214.9921875 C-94.26158119 212.7379049 -96.02927996 210.3443856 -97.875 207.75 C-100.82760465 203.61967102 -103.84200569 199.55849804 -106.96875 195.55859375 C-108 194 -108 194 -108 192 C-108.66 192 -109.32 192 -110 192 C-111.515625 190.3125 -111.515625 190.3125 -113.25 188 C-113.87777344 187.16984375 -114.50554687 186.3396875 -115.15234375 185.484375 C-115.76207031 184.66453125 -116.37179687 183.8446875 -117 183 C-117.47566406 182.36578125 -117.95132813 181.7315625 -118.44140625 181.078125 C-119.39078188 179.81229083 -120.33859503 178.54528385 -121.28515625 177.27734375 C-123.84269087 173.88089116 -126.43735771 170.51314978 -129.03515625 167.14746094 C-131.26601625 164.25702781 -133.4880043 161.36065681 -135.69140625 158.44921875 C-136.1306543 157.87131592 -136.56990234 157.29341309 -137.02246094 156.69799805 C-138.24254139 155.09208216 -139.45926452 153.48361717 -140.67578125 151.875 C-142.96997448 148.93042981 -142.96997448 148.93042981 -145.7578125 146.26171875 C-148.09154373 143.90765885 -148.26466332 143.04639481 -149 140 C-150.91666667 138.83333333 -150.91666667 138.83333333 -153 138 C-155.76223278 135.23776722 -155.57856291 132.79293383 -156 129 C-156.598125 128.938125 -157.19625 128.87625 -157.8125 128.8125 C-160.86915486 127.67717105 -161.46634026 125.78847225 -163 123 C-163.66 122.67 -164.32 122.34 -165 122 C-165 202.52 -165 283.04 -165 366 C-188.1 366 -211.2 366 -235 366 C-235 286.14 -235 206.28 -235 124 C-224.44 124 -213.88 124 -203 124 C-203 131.92 -203 139.84 -203 148 C-195.08 148 -187.16 148 -179 148 C-179.33 140.41 -179.66 132.82 -180 125 C-190.89 124.505 -190.89 124.505 -202 124 C-203.71802382 120.56395235 -203.1196618 116.61561104 -203.09765625 112.8359375 C-203.0962413 111.92872955 -203.09482635 111.02152161 -203.09336853 110.08682251 C-203.08776096 107.18284845 -203.07520718 104.27895085 -203.0625 101.375 C-203.05748598 99.40885528 -203.0529229 97.44270935 -203.04882812 95.4765625 C-203.03863899 90.65098834 -203.01906507 85.82558 -203 81 C-213.56 81 -224.12 81 -235 81 C-235 73.41 -235 65.82 -235 58 C-220.81 58 -206.62 58 -192 58 C-192 39.19 -192 20.38 -192 1 C-187.05 1 -182.1 1 -177 1 C-175 3 -175 3 -175 6 C-174.41605469 6.22816406 -173.83210938 6.45632812 -173.23046875 6.69140625 C-170.3951942 8.35483352 -169.16628909 10.22871385 -167.3125 12.9375 C-163.80720515 17.91905075 -160.09359111 22.63713737 -156.2109375 27.328125 C-150.4464991 34.29433677 -144.86716676 41.4117949 -139.29321289 48.53076172 C-136.87439304 51.61991748 -134.44491322 54.69938817 -131.9921875 57.76171875 C-131.50145752 58.37756836 -131.01072754 58.99341797 -130.50512695 59.62792969 C-129.57519335 60.79439912 -128.64169651 61.9580411 -127.70385742 63.11816406 C-125.49887501 65.89280507 -123.56462958 68.65207083 -121.8359375 71.75 C-119.91145445 75.15674446 -117.82242343 77.31525576 -115 80 C-111.6700832 83.84221169 -108.58348693 87.82067999 -105.55859375 91.90625 C-104.48095582 93.35390396 -103.38878939 94.79081464 -102.28515625 96.21875 C-101.73730469 96.9303125 -101.18945312 97.641875 -100.625 98.375 C-100.12226563 99.02210938 -99.61953125 99.66921875 -99.1015625 100.3359375 C-98 102 -98 102 -98 104 C-97.40703125 104.2475 -96.8140625 104.495 -96.203125 104.75 C-93.65171134 106.19761059 -92.48320638 107.6441855 -90.75 110 C-90.14027344 110.81210937 -89.53054688 111.62421875 -88.90234375 112.4609375 C-87.96068359 113.71777344 -87.96068359 113.71777344 -87 115 C-85.77765047 116.54707738 -84.54827778 118.08862762 -83.3125 119.625 C-82.65636719 120.44742188 -82.00023437 121.26984375 -81.32421875 122.1171875 C-79.52886294 124.34403218 -77.71778923 126.55399568 -75.89453125 128.7578125 C-74.80467912 130.0885348 -73.71483536 131.41926396 -72.625 132.75 C-72.10075439 133.37600098 -71.57650879 134.00200195 -71.03637695 134.64697266 C-68.65362525 137.5709233 -67.09960998 139.69905071 -65.8984375 143.328125 C-65.28657852 146.12539698 -65.28657852 146.12539698 -63.02734375 147.1328125 C-62.35832031 147.41898438 -61.68929687 147.70515625 -61 148 C-59.69140625 149.8046875 -59.69140625 149.8046875 -58.5625 151.875 C-57.11688111 154.5244618 -55.98745074 156.01003532 -53.6015625 157.91796875 C-50.77351462 160.18125632 -48.91939161 162.49926238 -46.8125 165.4375 C-46.13832031 166.36433594 -45.46414063 167.29117188 -44.76953125 168.24609375 C-43 171 -43 171 -41.94921875 173.78515625 C-41.63597656 174.51605469 -41.32273437 175.24695313 -41 176 C-40.01 176.33 -39.02 176.66 -38 177 C-36.30766743 179.00982698 -34.73746954 181.01074239 -33.1875 183.125 C-32.29317452 184.31883938 -31.3973509 185.51155801 -30.5 186.703125 C-30.06945312 187.27611328 -29.63890625 187.84910156 -29.1953125 188.43945312 C-27.75992498 190.31343127 -26.24747802 192.10377495 -24.6875 193.875 C-17 202.65758547 -17 202.65758547 -17 206 C-16.01 206.33 -15.02 206.66 -14 207 C-12.68139648 208.35107422 -12.68139648 208.35107422 -11.37109375 210.0546875 C-10.89349609 210.66957031 -10.41589844 211.28445313 -9.92382812 211.91796875 C-9.43333984 212.56378906 -8.94285156 213.20960938 -8.4375 213.875 C-7.94314453 214.51308594 -7.44878906 215.15117187 -6.93945312 215.80859375 C-4.86712043 218.49505481 -2.8834801 221.17477985 -1 224 C-0.67 150.08 -0.34 76.16 0 0 Z " fill="#3D98B6" transform="translate(406,170)"/>
<path d="M0 0 C20.46 0 40.92 0 62 0 C62 20.13 62 40.26 62 61 C41.54 61 21.08 61 0 61 C0 40.87 0 20.74 0 0 Z " fill="#3CABB7" transform="translate(123,107)"/>
<path d="M0 0 C12.54 0 25.08 0 38 0 C38 12.87 38 25.74 38 39 C25.46 39 12.92 39 0 39 C0 44.94 0 50.88 0 57 C-6.27 57 -12.54 57 -19 57 C-19.020625 54.050625 -19.04125 51.10125 -19.0625 48.0625 C-19.071604 47.13187744 -19.08070801 46.20125488 -19.09008789 45.24243164 C-19.09258545 44.51403076 -19.09508301 43.78562988 -19.09765625 43.03515625 C-19.10289307 42.2862915 -19.10812988 41.53742676 -19.11352539 40.76586914 C-19 39 -19 39 -18 38 C-12.06 38 -6.12 38 0 38 C0 25.46 0 12.92 0 0 Z " fill="#3E9BB7" transform="translate(108,209)"/>
<path d="M0 0 C0.82290527 0.00202423 1.64581055 0.00404846 2.49365234 0.00613403 C3.33331543 0.00517731 4.17297852 0.00422058 5.03808594 0.00323486 C6.81689529 0.00255306 8.59570712 0.00440737 10.37451172 0.00857544 C13.10699011 0.01392371 15.83930411 0.00863048 18.57177734 0.00222778 C20.29573604 0.00288856 22.01969464 0.00416973 23.74365234 0.00613403 C24.56655762 0.0041098 25.38946289 0.00208557 26.23730469 0 C32.0037018 0.02399599 32.0037018 0.02399599 33.11865234 1.13894653 C33.20726494 3.95034804 33.23394819 6.73774077 33.21630859 9.54910278 C33.21530151 10.29510742 33.21429443 11.04111206 33.21325684 11.8097229 C33.20800923 14.60697966 33.19404807 17.40421458 33.18115234 20.20144653 C33.16052734 26.45082153 33.13990234 32.70019653 33.11865234 39.13894653 C19.91865234 39.13894653 6.71865234 39.13894653 -6.88134766 39.13894653 C-6.90197266 32.88957153 -6.92259766 26.64019653 -6.94384766 20.20144653 C-6.95295166 18.22668335 -6.96205566 16.25192017 -6.97143555 14.21731567 C-6.97435471 12.6612454 -6.97690326 11.10517437 -6.97900391 9.54910278 C-6.98411987 8.73373047 -6.98923584 7.91835815 -6.99450684 7.07827759 C-6.99481706 5.0981413 -6.94372862 3.1181 -6.88134766 1.13894653 C-5.03858257 -0.70381855 -2.45171007 0.01020242 0 0 Z " fill="#3C84AB" transform="translate(126.88134765625,295.8610534667969)"/>
<path d="M0 0 C10.56 0 21.12 0 32 0 C32 10.56 32 21.12 32 32 C21.44 32 10.88 32 0 32 C0 21.44 0 10.88 0 0 Z " fill="#3DB2B8" transform="translate(206,119)"/>
<path d="M0 0 C0.33 0 0.66 0 1 0 C1.33 4.95 1.66 9.9 2 15 C2.33 14.67 2.66 14.34 3 14 C5.5327765 13.92679837 8.03103918 13.90772431 10.5625 13.9375 C13.016875 13.958125 15.47125 13.97875 18 14 C18 18.95 18 23.9 18 29 C12.72 29 7.44 29 2 29 C2 72.89 2 116.78 2 162 C2.66 162 3.32 162 4 162 C4.04241723 164.33294775 4.04092937 166.66702567 4 169 C3.67 169.33 3.34 169.66 3 170 C2.87593185 172.20794411 2.82197722 174.41984486 2.79467773 176.63110352 C2.78477814 177.32375305 2.77487854 178.01640259 2.76467896 178.7300415 C2.7329797 181.02962779 2.70827349 183.32923477 2.68359375 185.62890625 C2.66303148 187.21932018 2.64203521 188.80972855 2.62062073 190.40013123 C2.56532491 194.59389763 2.5159489 198.78771395 2.46777344 202.98156738 C2.40879989 208.00930006 2.34253078 213.03694115 2.27747345 218.06459808 C2.17936948 225.7096763 2.09057823 233.35481222 2 241 C23.78 241 45.56 241 68 241 C68.33 240.01 68.66 239.02 69 238 C69 239.32 69 240.64 69 242 C46.23 242 23.46 242 0 242 C0 162.14 0 82.28 0 0 Z " fill="#365D86" transform="translate(171,294)"/>
<path d="M0 0 C10.23 0 20.46 0 31 0 C31.33 14.19 31.66 28.38 32 43 C39.19522782 42.9604134 39.19522782 42.9604134 46.39038086 42.90991211 C47.28120361 42.90741455 48.17202637 42.90491699 49.08984375 42.90234375 C50.00628662 42.89710693 50.92272949 42.89187012 51.86694336 42.88647461 C54 43 54 43 55 44 C55.08713831 45.70772358 55.10700007 47.41898649 55.09765625 49.12890625 C55.09515869 50.06033447 55.09266113 50.9917627 55.09008789 51.95141602 C55.08098389 53.14307373 55.07187988 54.33473145 55.0625 55.5625 C55.041875 59.336875 55.02125 63.11125 55 67 C47.08 67 39.16 67 31 67 C31 59.08 31 51.16 31 43 C20.77 43 10.54 43 0 43 C0 42.67 0 42.34 0 42 C9.9 42 19.8 42 30 42 C30 28.47 30 14.94 30 1 C20.1 1 10.2 1 0 1 C0 0.67 0 0.34 0 0 Z " fill="#1D2A34" transform="translate(172,251)"/>
<path d="M0 0 C12.54 0 25.08 0 38 0 C38 12.87 38 25.74 38 39 C25.46 39 12.92 39 0 39 C0 44.94 0 50.88 0 57 C-6.27 57 -12.54 57 -19 57 C-19.020625 54.050625 -19.04125 51.10125 -19.0625 48.0625 C-19.071604 47.13187744 -19.08070801 46.20125488 -19.09008789 45.24243164 C-19.09258545 44.51403076 -19.09508301 43.78562988 -19.09765625 43.03515625 C-19.10289307 42.2862915 -19.10812988 41.53742676 -19.11352539 40.76586914 C-19 39 -19 39 -18 38 C-12.06 38 -6.12 38 0 38 C0 25.46 0 12.92 0 0 Z M1 1 C1 12.88 1 24.76 1 37 C12.88 37 24.76 37 37 37 C37 25.12 37 13.24 37 1 C25.12 1 13.24 1 1 1 Z " fill="#3A7F9B" transform="translate(108,209)"/>
<path d="M0 0 C6.6 0 13.2 0 20 0 C20 6.6 20 13.2 20 20 C13.4 20 6.8 20 0 20 C0 13.4 0 6.8 0 0 Z " fill="#1B2127" transform="translate(215,229)"/>
<path d="M0 0 C22.44 0 44.88 0 68 0 C68 22.77 68 45.54 68 69 C67.67 69 67.34 69 67 69 C65.74382891 62.22363072 65.87355938 55.5028113 65.90234375 48.62890625 C65.9037587 47.35144028 65.90517365 46.0739743 65.90663147 44.75779724 C65.91126484 41.38275254 65.92022977 38.00777703 65.93133545 34.63275146 C65.94161574 31.18030389 65.94614319 27.72784913 65.95117188 24.27539062 C65.96217534 17.51690815 65.97889433 10.75845807 66 4 C62.22119537 3.19545641 58.81934573 2.89453506 54.94921875 2.9375 C53.78277832 2.94587891 52.61633789 2.95425781 51.41455078 2.96289062 C50.18462402 2.97513672 48.95469727 2.98738281 47.6875 3 C38.45077333 3.05215141 29.30914342 2.9537232 20.1015625 2.21875 C16.97134436 1.9565083 16.97134436 1.9565083 13.7109375 2.03125 C11 2 11 2 9 1 C9 1.66 9 2.32 9 3 C8.21625 2.938125 7.4325 2.87625 6.625 2.8125 C5.325625 2.9053125 5.325625 2.9053125 4 3 C1.72934179 6.40598731 1.80405055 7.52854425 1.9375 11.5 C2.03898471 14.78280975 2.04727799 16.85816604 1 20 C1.66 20.33 2.32 20.66 3 21 C2.67 21.33 2.34 21.66 2 22 C1.91156207 24.44830426 1.88471248 26.86820599 1.90234375 29.31640625 C1.9037587 30.04746078 1.90517365 30.77851532 1.90663147 31.53172302 C1.91224592 33.87535632 1.92480078 36.21889539 1.9375 38.5625 C1.94251314 40.14778508 1.94707637 41.73307166 1.95117188 43.31835938 C1.96222003 47.2122761 1.97949428 51.10612205 2 55 C1.34 54.67 0.68 54.34 0 54 C0 36.18 0 18.36 0 0 Z " fill="#44C1BB" transform="translate(407,171)"/>
<path d="M0 0 C4.95 0 9.9 0 15 0 C15.66 1.32 16.32 2.64 17 4 C16.01 3.34 15.02 2.68 14 2 C9.71 1.67 5.42 1.34 1 1 C1 19.48 1 37.96 1 57 C7.93 57 14.86 57 22 57 C22 64.26 22 71.52 22 79 C14.74 79 7.48 79 0 79 C0 72.07 0 65.14 0 58 C-13.86 58 -27.72 58 -42 58 C-42 64.93 -42 71.86 -42 79 C-31.77 79 -21.54 79 -11 79 C-11 79.33 -11 79.66 -11 80 C-21.56 80 -32.12 80 -43 80 C-43 72.41 -43 64.82 -43 57 C-28.81 57 -14.62 57 0 57 C0 38.19 0 19.38 0 0 Z M1 58 C1 64.6 1 71.2 1 78 C7.6 78 14.2 78 21 78 C21 71.4 21 64.8 21 58 C14.4 58 7.8 58 1 58 Z " fill="#346F7B" transform="translate(214,171)"/>
<path d="M0 0 C0.33 0 0.66 0 1 0 C1 36.96 1 73.92 1 112 C-13.19 112 -27.38 112 -42 112 C-43.32 110.35 -44.64 108.7 -46 107 C-46.495 106.54625 -46.99 106.0925 -47.5 105.625 C-49.86789627 103.05977905 -51.32729281 100.05701658 -53 97 C-52.01 97.33 -51.02 97.66 -50 98 C-50 98.66 -50 99.32 -50 100 C-49.34 100 -48.68 100 -48 100 C-48 100.99 -48 101.98 -48 103 C-47.071875 103.4640625 -47.071875 103.4640625 -46.125 103.9375 C-44.75 104.625 -43.375 105.3125 -42 106 C-41.67 107.32 -41.34 108.64 -41 110 C-20.705 110.495 -20.705 110.495 0 111 C-0.17402344 108.14214844 -0.34804688 105.28429687 -0.52734375 102.33984375 C-1.45864893 83.45711773 -0.87292214 64.52143804 -0.60510254 45.6272583 C-0.53342606 40.47096715 -0.4692111 35.31458306 -0.40429688 30.15820312 C-0.27667662 20.10536658 -0.14101576 10.05265697 0 0 Z " fill="#4186A8" transform="translate(474,424)"/>
<path d="M0 0 C4.29 0 8.58 0 13 0 C13 4.29 13 8.58 13 13 C8.71 13 4.42 13 0 13 C0 8.71 0 4.42 0 0 Z " fill="#1B2229" transform="translate(175,309)"/>
<path d="M0 0 C0.33 0 0.66 0 1 0 C1 10.56 1 21.12 1 32 C11.56 32 22.12 32 33 32 C32.505 32.99 32.505 32.99 32 34 C27.46102295 34.02465392 22.92208457 34.04283789 18.38305664 34.05493164 C16.83780234 34.0599714 15.29255284 34.0668032 13.74731445 34.07543945 C11.53074971 34.08752076 9.31424782 34.09323173 7.09765625 34.09765625 C6.05545677 34.10539818 6.05545677 34.10539818 4.99220276 34.11329651 C3.3277067 34.11349277 1.66334501 34.06189129 0 34 C-1.67673649 32.32326351 -1.12787817 30.27144924 -1.13894653 28.03344727 C-1.1369223 27.34178467 -1.13489807 26.65012207 -1.1328125 25.9375 C-1.13376923 25.23101318 -1.13472595 24.52452637 -1.13571167 23.79663086 C-1.13639333 22.30029207 -1.13454005 20.80395033 -1.13037109 19.30761719 C-1.12502257 17.00969843 -1.13031651 14.71197514 -1.13671875 12.4140625 C-1.13605797 10.96354123 -1.1347768 9.51302009 -1.1328125 8.0625 C-1.13483673 7.3708374 -1.13686096 6.6791748 -1.13894653 5.96655273 C-1.11495224 1.11495224 -1.11495224 1.11495224 0 0 Z " fill="#173439" transform="translate(205,119)"/>
<path d="M0 0 C1.39456867 0.00574201 2.78910972 0.01875397 4.18359375 0.03515625 C6.63796875 0.05578125 9.09234375 0.07640625 11.62109375 0.09765625 C11.62109375 5.04765625 11.62109375 9.99765625 11.62109375 15.09765625 C6.34109375 15.09765625 1.06109375 15.09765625 -4.37890625 15.09765625 C-4.37890625 32.58765625 -4.37890625 50.07765625 -4.37890625 68.09765625 C-4.70890625 68.09765625 -5.03890625 68.09765625 -5.37890625 68.09765625 C-5.40442836 60.48454511 -5.42184491 52.87144516 -5.43383789 45.25830078 C-5.43884189 42.67268461 -5.44564714 40.08707123 -5.4543457 37.50146484 C-5.46658455 33.7678966 -5.47217405 30.03436602 -5.4765625 26.30078125 C-5.48172379 25.15965881 -5.48688507 24.01853638 -5.49220276 22.84283447 C-5.49270126 15.58139962 -5.37721244 8.30165877 -4.37890625 1.09765625 C-3.37890625 0.09765625 -3.37890625 0.09765625 0 0 Z M-2.37890625 1.09765625 C-2.37890625 5.38765625 -2.37890625 9.67765625 -2.37890625 14.09765625 C1.91109375 14.09765625 6.20109375 14.09765625 10.62109375 14.09765625 C10.62109375 9.80765625 10.62109375 5.51765625 10.62109375 1.09765625 C6.33109375 1.09765625 2.04109375 1.09765625 -2.37890625 1.09765625 Z " fill="#396F8C" transform="translate(177.37890625,307.90234375)"/>
<path d="M0 0 C0.33 0 0.66 0 1 0 C1.33 3.3 1.66 6.6 2 10 C3.5675 10.020625 5.135 10.04125 6.75 10.0625 C7.63171875 10.07410156 8.5134375 10.08570313 9.421875 10.09765625 C11.7818838 10.00826198 13.74498524 9.66912821 16 9 C16 10.32 16 11.64 16 13 C11.38 13.33 6.76 13.66 2 14 C1.67 17.96 1.34 21.92 1 26 C0.67 26 0.34 26 0 26 C0 17.42 0 8.84 0 0 Z " fill="#458EAD" transform="translate(172,295)"/>
<path d="M0 0 C0.99 0.33 1.98 0.66 3 1 C3 1.66 3 2.32 3 3 C3.66 3 4.32 3 5 3 C5 3.99 5 4.98 5 6 C5.928125 6.4640625 5.928125 6.4640625 6.875 6.9375 C8.25 7.625 9.625 8.3125 11 9 C11.33 10.32 11.66 11.64 12 13 C16.95 13.33 21.9 13.66 27 14 C27 14.33 27 14.66 27 15 C24.4149133 15.13526616 21.83691248 15.23417653 19.25 15.3125 C18.52039063 15.35439453 17.79078125 15.39628906 17.0390625 15.43945312 C14.890625 15.48828125 14.890625 15.48828125 11 15 C8.578125 12.56640625 8.578125 12.56640625 7 10 C6.505 9.54625 6.01 9.0925 5.5 8.625 C3.13210373 6.05977905 1.67270719 3.05701658 0 0 Z " fill="#4078A1" transform="translate(421,521)"/>
<path d="M0 0 C4.95 0 9.9 0 15 0 C14.67 0.99 14.34 1.98 14 3 C12.41676312 3.027193 10.83338938 3.04648306 9.25 3.0625 C7.92742187 3.07990234 7.92742187 3.07990234 6.578125 3.09765625 C4.2181162 3.00826198 2.25501476 2.66912821 0 2 C0 1.34 0 0.68 0 0 Z " fill="#408CAF" transform="translate(173,323)"/>
<path d="M0 0 C1.66666667 1.66666667 3.33333333 3.33333333 5 5 C5.61875 5.515625 6.2375 6.03125 6.875 6.5625 C7.431875 7.2740625 7.431875 7.2740625 8 8 C7.6875 10.1875 7.6875 10.1875 7 12 C4.09197539 9.78071806 2.04687238 8.07030857 0 5 C-0.125 2.3125 -0.125 2.3125 0 0 Z " fill="#3D919F" transform="translate(268,222)"/>
<path d="M0 0 C3.91939465 3.80411834 7.49102731 7.81576108 11 12 C10.67 12.66 10.34 13.32 10 14 C6.51866169 12.60746468 5.52113967 11.36823784 4 8 C3.34 7.67 2.68 7.34 2 7 C1.26924352 4.6859378 0.59861742 2.35171131 0 0 Z " fill="#203648" transform="translate(363,448)"/>
<path d="M0 0 C1.8125 0.1875 1.8125 0.1875 4 1 C7 5.17857143 7 5.17857143 7 8 C7.66 8 8.32 8 9 8 C8.67 8.99 8.34 9.98 8 11 C6.66375099 9.35653302 5.33107149 7.71016314 4 6.0625 C3.2575 5.14597656 2.515 4.22945313 1.75 3.28515625 C0 1 0 1 0 0 Z " fill="#40789E" transform="translate(410,507)"/>
<path d="M0 0 C3.19199167 2.41556126 5.74716687 4.68003538 8 8 C7.67 8.66 7.34 9.32 7 10 C4.0625 8.375 4.0625 8.375 1 6 C0.125 2.75 0.125 2.75 0 0 Z " fill="#1E3549" transform="translate(411,510)"/>
<path d="M0 0 C2.96404505 2.80804268 5.44499019 5.18315774 7 9 C6.236875 8.505 5.47375 8.01 4.6875 7.5 C2.07636249 5.75631692 2.07636249 5.75631692 -1 6 C-0.67 4.02 -0.34 2.04 0 0 Z " fill="#3C8393" transform="translate(332,303)"/>
<path d="M0 0 C0.99 0.33 1.98 0.66 3 1 C3 1.66 3 2.32 3 3 C5.475 3.99 5.475 3.99 8 5 C7.67 5.99 7.34 6.98 7 8 C3.83282717 6.41641358 2.26731682 5.54736301 0.6875 2.3125 C0.460625 1.549375 0.23375 0.78625 0 0 Z " fill="#3A759A" transform="translate(399,493)"/>
<path d="M0 0 C0.66 0 1.32 0 2 0 C2 0.66 2 1.32 2 2 C2.66 2 3.32 2 4 2 C7 7.625 7 7.625 7 11 C3.85014682 7.43569245 1.4859916 4.59306496 0 0 Z " fill="#28525F" transform="translate(344,317)"/>
<path d="M0 0 C1.65 0 3.3 0 5 0 C5 1.98 5 3.96 5 6 C5.66 6 6.32 6 7 6 C6.67 6.66 6.34 7.32 6 8 C3.38472619 5.63379989 1.73559438 3.057952 0 0 Z " fill="#1D3B46" transform="translate(304,267)"/>
<path d="M0 0 C2.64 0 5.28 0 8 0 C8 0.66 8 1.32 8 2 C7.236875 1.938125 6.47375 1.87625 5.6875 1.8125 C2.95474688 1.74101915 2.95474688 1.74101915 1.1875 3.5 C0.795625 3.995 0.40375 4.49 0 5 C0 3.35 0 1.7 0 0 Z " fill="#3CC7C1" transform="translate(408,172)"/>
<path d="M0 0 C0.99 0 1.98 0 3 0 C3 0.99 3 1.98 3 3 C3.99 3 4.98 3 6 3 C6.33 3.99 6.66 4.98 7 6 C6.01 6 5.02 6 4 6 C1.8125 3 1.8125 3 0 0 Z " fill="#4084AA" transform="translate(358,440)"/>
<path d="M0 0 C1.32 0.33 2.64 0.66 4 1 C4 1.66 4 2.32 4 3 C4.66 3 5.32 3 6 3 C6.33 4.65 6.66 6.3 7 8 C4.35247996 5.42215154 2.05567935 3.08351902 0 0 Z " fill="#172F35" transform="translate(253,202)"/>
<path d="M0 0 C1.65 1.65 3.3 3.3 5 5 C3.02 5.99 3.02 5.99 1 7 C0 2.25 0 2.25 0 0 Z " fill="#1D303A" transform="translate(352,434)"/>
</svg>
